<svg width="114" height="38" viewBox="0 0 114 38" fill="none" xmlns="http://www.w3.org/2000/svg">
<path d="M23.1664 26.8489L21.7327 22.6673L18.1487 11.848L14.5646 22.6673L13.131 26.8489L11.5018 31.7607H6.90771L15.7376 6.13975H20.7553L29.5851 31.7607H24.7955L23.1664 26.8489ZM53.5332 25.5214C53.2074 27.8777 52.0996 29.4376 50.6986 30.4996C48.5155 32.159 45.4854 32.4908 42.4552 32.0262C39.816 31.628 37.1442 30.4996 35.3848 28.3092L39.1318 26.0192C40.0115 27.2472 41.6732 27.7782 43.1068 28.0105C44.8337 28.276 46.528 28.1432 47.6358 27.2804C48.2874 26.7494 48.8088 26.2183 48.9717 24.9904C49.2323 23.1319 47.9616 22.0699 46.4628 21.5389C44.8337 20.9747 42.6507 20.5764 41.0541 20.0454C37.6981 18.9502 35.1567 16.2288 35.7432 12.014C36.0364 10.0227 37.1442 8.46289 38.643 7.33451C40.5328 5.94062 43.4327 5.31005 46.3325 5.74149C49.0043 6.13975 51.4805 7.40088 52.9142 9.2594L49.2975 11.6821C48.6133 10.7197 47.0493 9.95634 45.7134 9.75721C44.3124 9.55809 42.6507 9.62446 41.4777 10.5537C40.8586 11.0515 40.4677 11.6489 40.3373 12.5782C40.1093 14.2044 41.0216 15.2332 42.4552 15.6978C43.9866 16.1956 46.1696 16.6935 47.7661 17.1581C51.3828 18.2533 54.1523 21.207 53.5332 25.5214ZM72.3007 22.5677H69.9874V18.4856H72.1052C75.168 18.4856 76.5364 16.8262 76.5364 14.3703C76.5364 11.9144 75.1354 10.2218 72.1052 10.2218H66.9572V18.4856V22.5677V31.7607H62.4282V6.10656H72.3007C78.1004 6.10656 81.1632 9.39215 81.1632 14.3039C81.1632 19.2489 78.1004 22.5677 72.3007 22.5677ZM88.0381 28.3424L91.785 26.0524C92.6974 27.2804 94.3265 27.8114 95.7601 28.0437C97.487 28.3092 99.1813 28.1764 100.289 27.3135C100.941 26.7825 101.462 26.2515 101.625 25.0236C101.886 23.1651 100.615 22.1031 99.1161 21.5721C97.487 21.0079 95.3039 20.6096 93.7074 20.0786C90.3514 18.9834 87.81 16.262 88.3965 12.0472C88.6897 10.0559 89.7975 8.49608 91.2963 7.36769C93.1861 5.97381 96.0859 5.34324 98.9858 5.77468C101.658 6.17293 104.134 7.43407 105.567 9.29259L101.951 11.7153C101.267 10.7528 99.7026 9.98953 98.3667 9.7904C96.9656 9.59128 95.3039 9.65765 94.131 10.5869C93.5119 11.0847 93.1209 11.6821 92.9906 12.6114C92.7625 14.2376 93.6748 15.2664 95.1084 15.731C96.6398 16.2288 98.8229 16.7266 100.419 17.1913C104.069 18.2865 106.838 21.207 106.219 25.5546C105.893 27.9109 104.785 29.4708 103.384 30.5328C101.201 32.1921 98.1712 32.524 95.141 32.0594C92.4693 31.6611 89.7975 30.5328 88.0381 28.3424Z" fill="white"/>
</svg>
