<svg width="212" height="38" viewBox="0 0 212 38" fill="none" xmlns="http://www.w3.org/2000/svg">
<g clip-path="url(#clip0_4934_3417)">
<path d="M37.9217 22.8471C38.3927 23.0041 38.9423 23.1611 39.7274 23.3182C40.4341 23.4752 41.1407 23.5537 41.8473 23.5537C43.1035 23.5537 44.1241 23.2397 44.8307 22.6901C45.5374 22.1405 45.9299 21.4339 45.9299 20.6487C45.9299 20.0992 45.8514 19.6281 45.6159 19.2355C45.3803 18.843 45.0663 18.5289 44.7522 18.2934C44.3597 18.0578 43.9671 17.8223 43.496 17.6653C43.025 17.5083 42.5539 17.3512 42.0828 17.1942C41.5332 17.0372 41.0622 16.8016 40.5126 16.6446C39.963 16.4091 39.5704 16.1735 39.1779 15.8595C38.7853 15.5454 38.4712 15.1529 38.2357 14.6818C38.0002 14.2107 37.8431 13.6611 37.8431 12.9545C37.8431 11.6983 38.3142 10.5992 39.2564 9.81404C40.1985 9.02891 41.6117 8.63635 43.5746 8.63635C44.3597 8.63635 45.2233 8.71487 45.9299 8.87189C46.715 9.02891 47.2646 9.18594 47.7357 9.34296C47.6572 9.97106 47.5002 10.5206 47.2646 11.1487C46.7936 10.9917 46.244 10.8347 45.6159 10.6777C44.9093 10.5207 44.2027 10.4421 43.496 10.4421C42.2398 10.4421 41.2977 10.6777 40.7481 11.1487C40.1985 11.6198 39.963 12.1694 39.963 12.9545C39.963 13.3471 40.0415 13.6611 40.1985 13.9752C40.3555 14.2892 40.5911 14.5248 40.9051 14.6818C41.2192 14.9173 41.5332 15.0744 41.9258 15.2314C42.3184 15.3884 42.7109 15.5454 43.182 15.624C43.7316 15.781 44.3597 16.0165 44.9093 16.2521C45.4588 16.4876 46.0084 16.7231 46.4795 17.1157C46.9506 17.5083 47.3431 17.9008 47.6572 18.4504C47.9712 19 48.1283 19.7066 48.1283 20.4917C48.1283 21.2768 47.9712 21.9049 47.6572 22.533C47.3431 23.1611 46.9506 23.7107 46.401 24.1033C45.8514 24.4959 45.2233 24.8884 44.4382 25.124C43.6531 25.3595 42.8679 25.438 41.9258 25.438C40.9051 25.438 40.0415 25.3595 39.2564 25.281C38.4712 25.124 37.8431 24.9669 37.3721 24.8099C37.4506 24.1033 37.6076 23.4752 37.9217 22.8471Z" fill="white"/>
<path d="M50.562 8.9504C50.719 8.9504 50.8761 8.9504 51.0331 8.87189C51.1901 8.87189 51.4256 8.87189 51.6612 8.87189C51.8182 8.87189 52.0537 8.87189 52.2893 8.87189C52.5248 8.87189 52.6818 8.87189 52.8389 8.9504L56.3719 22.6116L60.3761 8.9504C60.5331 8.9504 60.6901 8.9504 60.9256 8.87189C61.1612 8.87189 61.3182 8.87189 61.5537 8.87189C61.7108 8.87189 61.8678 8.87189 62.1033 8.87189C62.2604 8.87189 62.4174 8.87189 62.6529 8.9504L66.6571 22.4545L70.1901 8.9504C70.3471 8.9504 70.5042 8.9504 70.6612 8.87189C70.8182 8.87189 70.9752 8.87189 71.2108 8.87189C71.3678 8.87189 71.6033 8.87189 71.7604 8.87189C71.9959 8.87189 72.1529 8.87189 72.2314 8.9504L67.5207 25.0454C67.1281 25.124 66.8141 25.124 66.4215 25.124C66.0289 25.124 65.6364 25.124 65.3223 25.0454L61.4752 11.7768L57.3926 25.0454C57 25.124 56.6075 25.124 56.2934 25.124C55.9009 25.124 55.5083 25.124 55.1942 25.0454L50.562 8.9504Z" fill="white"/>
<path d="M77.2563 8.95044C77.0207 8.95044 76.8637 8.95044 76.7852 8.95044C76.6282 8.95044 76.4712 8.95044 76.2356 8.95044C76.0001 8.95044 75.8431 8.95044 75.686 9.02895V25.124C75.8431 25.124 76.0001 25.124 76.2356 25.2025C76.4712 25.2025 76.6282 25.2025 76.7067 25.2025C76.8637 25.2025 77.0207 25.2025 77.2563 25.2025C77.4918 25.2025 77.6488 25.2025 77.8059 25.124V8.95044C77.6488 8.95044 77.4918 8.95044 77.2563 8.95044Z" fill="white"/>
<path d="M81.9671 22.8471C82.4381 23.0041 82.9877 23.1611 83.7729 23.3182C84.4795 23.4752 85.1861 23.5537 85.8927 23.5537C87.1489 23.5537 88.1695 23.2397 88.8762 22.6901C89.5828 22.1405 89.9753 21.4339 89.9753 20.6487C89.9753 20.0992 89.8968 19.6281 89.6613 19.2355C89.4257 18.843 89.1117 18.5289 88.7976 18.2934C88.4051 18.0578 88.0125 17.8223 87.5414 17.6653C87.0704 17.5083 86.5993 17.3512 86.1282 17.1942C85.5786 17.0372 85.1076 16.8016 84.558 16.6446C84.0084 16.4091 83.6158 16.1735 83.2233 15.8595C82.8307 15.5454 82.5167 15.1529 82.2811 14.6818C82.0456 14.2107 81.8886 13.6611 81.8886 12.9545C81.8886 11.6983 82.3596 10.5992 83.3018 9.81404C84.2439 9.02891 85.6572 8.63635 87.62 8.63635C88.4051 8.63635 89.2687 8.71487 89.9753 8.87189C90.7605 9.02891 91.31 9.18594 91.7811 9.34296C91.7026 9.97106 91.5456 10.5206 91.31 11.1487C90.839 10.9917 90.2894 10.8347 89.6613 10.6777C88.9547 10.5207 88.2481 10.4421 87.5414 10.4421C86.2853 10.4421 85.3431 10.6777 84.7935 11.1487C84.2439 11.6198 84.0084 12.1694 84.0084 12.9545C84.0084 13.3471 84.0869 13.6611 84.2439 13.9752C84.401 14.2892 84.6365 14.5248 84.9505 14.6818C85.2646 14.9173 85.5786 15.0744 85.9712 15.2314C86.3638 15.3884 86.7563 15.5454 87.2274 15.624C87.777 15.781 88.4051 16.0165 88.9547 16.2521C89.5043 16.4876 90.0538 16.7231 90.5249 17.1157C90.996 17.5083 91.3886 17.9008 91.7026 18.4504C92.0167 19 92.1737 19.7066 92.1737 20.4917C92.1737 21.2768 92.0167 21.9049 91.7026 22.533C91.3886 23.1611 90.996 23.7107 90.4464 24.1033C89.8968 24.4959 89.2687 24.8884 88.4836 25.124C87.6985 25.3595 86.9134 25.438 85.9712 25.438C84.9505 25.438 84.0869 25.3595 83.3018 25.281C82.5167 25.2025 81.8886 24.9669 81.4175 24.8099C81.496 24.1033 81.653 23.4752 81.9671 22.8471Z" fill="white"/>
<path d="M95.3924 22.8471C95.8634 23.0041 96.413 23.1611 97.1981 23.3182C97.9048 23.4752 98.6114 23.5537 99.318 23.5537C100.574 23.5537 101.595 23.2397 102.301 22.6901C103.008 22.1405 103.401 21.4339 103.401 20.6487C103.401 20.0992 103.322 19.6281 103.087 19.2355C102.851 18.843 102.537 18.5289 102.223 18.2934C101.83 18.0578 101.438 17.8223 100.967 17.6653C100.496 17.5083 100.025 17.3512 99.5535 17.1942C99.0039 17.0372 98.5329 16.8016 97.9833 16.6446C97.4337 16.4091 97.0411 16.1735 96.6486 15.8595C96.256 15.5454 95.9419 15.1529 95.7064 14.6818C95.4709 14.2107 95.3138 13.6611 95.3138 12.9545C95.3138 11.6983 95.7849 10.5992 96.7271 9.81404C97.6692 9.02891 99.0824 8.63635 101.045 8.63635C101.83 8.63635 102.694 8.71487 103.401 8.87189C104.186 9.02891 104.735 9.18594 105.206 9.34296C105.128 9.97106 104.971 10.5206 104.735 11.1487C104.264 10.9917 103.715 10.8347 103.087 10.6777C102.38 10.5207 101.673 10.4421 100.967 10.4421C99.7105 10.4421 98.7684 10.6777 98.2188 11.1487C97.6692 11.6198 97.4337 12.1694 97.4337 12.9545C97.4337 13.3471 97.5122 13.6611 97.6692 13.9752C97.8262 14.2892 98.0618 14.5248 98.3758 14.6818C98.6899 14.9173 99.0039 15.0744 99.3965 15.2314C99.7891 15.3884 100.182 15.5454 100.653 15.624C101.202 15.781 101.83 16.0165 102.38 16.2521C102.93 16.4876 103.479 16.7231 103.95 17.1157C104.421 17.5083 104.814 17.9008 105.128 18.4504C105.442 19 105.599 19.7066 105.599 20.4917C105.599 21.2768 105.442 21.9049 105.128 22.533C104.814 23.1611 104.421 23.7107 103.872 24.1033C103.322 24.4959 102.694 24.8884 101.909 25.124C101.124 25.3595 100.339 25.438 99.3965 25.438C98.3758 25.438 97.5122 25.3595 96.7271 25.281C95.9419 25.2025 95.3138 24.9669 94.8428 24.8099C94.9213 24.1033 95.1568 23.4752 95.3924 22.8471Z" fill="white"/>
<path d="M26.0661 4.71077C24.9669 0.628126 21.1198 -1.17766 16.5661 0.785151L9.81405 3.6116C4.39669 5.88846 0 12.562 0 18.3719V30.6199C0 32.6612 0.549587 34.3099 1.41322 35.4876C3.1405 37.843 6.28099 38.6281 9.81405 37.1364L16.5661 34.3099C21.9835 32.0331 26.3802 25.3595 26.3802 19.5496V7.30168C26.3802 6.35953 26.2231 5.49589 26.0661 4.71077ZM23.0826 17.2728H17.9793V22.3761H13.5826V17.2728H8.47934V12.8761H13.5826V7.77275H17.9793V12.8761H23.0826V17.2728Z" fill="white"/>
<path d="M75.5287 5.57439C75.5287 5.41736 75.5287 5.18183 75.4502 4.94629C75.4502 4.71075 75.4502 4.47521 75.4502 4.31819C75.4502 4.16116 75.4502 4.00414 75.4502 3.7686C75.4502 3.53307 75.4502 3.37604 75.5287 3.21902C75.6857 3.21902 75.9213 3.21902 76.1568 3.1405C76.3923 3.1405 76.6279 3.1405 76.7849 3.1405C76.9419 3.1405 77.099 3.1405 77.3345 3.1405C77.57 3.1405 77.7271 3.1405 77.8841 3.21902C77.8841 3.37604 77.8841 3.53307 77.9626 3.7686C77.9626 4.00414 77.9626 4.16116 77.9626 4.31819C77.9626 4.47521 77.9626 4.71075 77.9626 4.94629C77.9626 5.18183 77.9626 5.41736 77.8841 5.57439C77.7271 5.57439 77.57 5.57439 77.3345 5.6529C77.099 5.6529 76.9419 5.6529 76.7849 5.6529C76.6279 5.6529 76.3923 5.6529 76.1568 5.6529C75.9213 5.57439 75.7642 5.57439 75.5287 5.57439Z" fill="white"/>
<path d="M118.946 17.0372C118.632 16.6446 118.239 16.4091 117.768 16.1735C117.297 15.938 116.826 15.781 116.355 15.624L115.02 15.1529C114.628 14.9959 114.314 14.9173 114 14.7603C113.686 14.6818 113.45 14.5248 113.215 14.3678C112.979 14.2107 112.822 14.0537 112.744 13.8182C112.665 13.6611 112.587 13.3471 112.587 13.1116C112.587 12.562 112.822 12.1694 113.293 12.0124C113.843 11.7768 114.471 11.6198 115.177 11.6198C115.884 11.6198 116.512 11.6983 117.062 11.8554C117.69 12.0124 118.161 12.1694 118.632 12.3264L118.868 12.4049L118.946 12.1694C119.103 11.8554 119.26 11.4628 119.339 10.9917C119.417 10.5992 119.496 10.1281 119.574 9.73553V9.49999L119.339 9.42148C118.789 9.18594 118.082 9.02891 117.297 8.87189C116.512 8.71487 115.727 8.63635 114.942 8.63635C112.979 8.63635 111.487 9.02891 110.467 9.89255C109.446 10.7562 108.896 11.9339 108.896 13.3471C108.896 14.4463 109.211 15.3099 109.839 16.0165C110.467 16.6446 111.409 17.1942 112.744 17.7438L113.843 18.1364C114.235 18.2934 114.549 18.3719 114.863 18.5289C115.177 18.6859 115.413 18.7645 115.649 19C115.884 19.157 116.041 19.314 116.198 19.5496C116.355 19.7851 116.355 20.0206 116.355 20.4132C116.355 20.7273 116.277 20.9628 116.12 21.1983C115.963 21.4339 115.727 21.6694 115.413 21.8264C115.099 21.9835 114.785 22.1405 114.392 22.219C113.45 22.4545 112.351 22.376 111.252 22.1405C110.624 21.9835 109.996 21.8264 109.525 21.5909L109.289 21.5124L109.211 21.7479C109.054 22.1405 108.896 22.533 108.739 23.0041C108.582 23.3967 108.504 23.8678 108.504 24.2603V24.4959L108.739 24.5744C109.368 24.8099 110.074 24.9669 110.781 25.124C111.487 25.281 112.351 25.3595 113.372 25.3595C114.314 25.3595 115.256 25.2025 116.041 24.9669C116.826 24.7314 117.533 24.3388 118.161 23.9463C118.711 23.4752 119.182 22.9256 119.496 22.2975C119.81 21.6694 119.967 20.8843 119.967 20.0992C119.967 19.3926 119.888 18.7645 119.653 18.2934C119.496 17.8223 119.26 17.4297 118.946 17.0372Z" fill="white"/>
<path d="M132.058 22.1405L131.979 21.905L131.744 21.9835C131.508 22.062 131.194 22.062 130.959 22.1405C130.645 22.219 130.331 22.219 130.017 22.219C129.624 22.219 129.231 22.1405 128.996 22.062C128.76 21.9835 128.603 21.8265 128.446 21.5909C128.289 21.3554 128.211 20.9628 128.132 20.4917C128.054 20.0207 128.054 19.3141 128.054 18.4504V11.4628H132.058L132.136 11.2273C132.215 10.9917 132.215 10.7562 132.215 10.5992C132.215 10.3636 132.215 10.1281 132.215 9.89258C132.215 9.4215 132.136 9.02894 132.058 8.63638L131.979 8.40084H127.975V4.47522H126.405L124.442 8.47935L121.773 8.87191L121.616 9.50001V10.5992L121.851 11.3843H124.207V20.0992C124.207 21.8265 124.678 23.1612 125.541 23.9463C126.405 24.7314 127.661 25.124 129.231 25.124C129.781 25.124 130.252 25.124 130.723 25.0455C131.194 24.967 131.665 24.8884 132.058 24.8099L132.293 24.7314V24.4959C132.293 24.1818 132.293 23.7893 132.215 23.3182C132.372 23.0827 132.215 22.6116 132.058 22.1405Z" fill="white"/>
<path d="M140.223 8.63635C139.438 8.63635 138.653 8.71486 137.789 8.79338C136.925 8.9504 136.14 9.10743 135.512 9.34296L135.277 9.42148V9.65701C135.277 10.5992 135.512 11.4628 135.905 12.1694L135.983 12.4049L136.219 12.3264C136.768 12.1694 137.397 12.0124 137.946 11.9339C138.574 11.8554 139.202 11.7768 139.83 11.7768C140.93 11.7768 141.715 12.0124 142.264 12.4049C142.814 12.7975 143.049 13.5826 143.049 14.6818V14.9173C142.814 14.9173 142.578 14.8388 142.343 14.8388C141.95 14.8388 141.401 14.7603 140.773 14.7603C139.909 14.7603 139.045 14.8388 138.26 15.0744C137.475 15.3099 136.69 15.624 136.062 16.095C135.434 16.5661 134.884 17.1157 134.57 17.8223C134.178 18.5289 134.021 19.314 134.021 20.2562C134.021 21.1983 134.178 21.9835 134.492 22.6116C134.806 23.2397 135.277 23.7892 135.826 24.2603C136.376 24.6529 137.082 24.9669 137.946 25.2025C138.731 25.3595 139.673 25.5165 140.694 25.5165C141.715 25.5165 142.814 25.438 143.835 25.281C144.855 25.124 145.719 24.9669 146.425 24.8099L146.661 24.7314V14.6818C146.661 12.562 146.111 11.0702 145.012 10.0496C143.913 9.10743 142.264 8.63635 140.223 8.63635ZM143.128 17.7438V22.1405C142.814 22.219 142.421 22.2975 142.107 22.2975C141.244 22.376 140.459 22.376 139.595 22.2975C139.202 22.2975 138.888 22.1405 138.574 21.9835C138.26 21.8264 138.025 21.5909 137.868 21.2768C137.711 20.9628 137.554 20.5702 137.554 20.0206C137.554 19.157 137.868 18.5289 138.417 18.1364C139.045 17.7438 139.909 17.5083 141.087 17.5083C141.401 17.5083 141.793 17.5083 142.264 17.5868C142.578 17.6653 142.892 17.7438 143.128 17.7438Z" fill="white"/>
<path d="M165.661 8.32229C165.661 7.69419 165.74 7.14461 165.897 6.67353C166.054 6.28097 166.289 5.96692 166.603 5.73138C166.917 5.49585 167.231 5.33882 167.624 5.26031C168.017 5.1818 168.488 5.10328 169.037 5.10328C169.744 5.10328 170.293 5.1818 170.764 5.26031C171.236 5.33882 171.785 5.49585 172.413 5.73138L172.649 5.80989L172.806 5.57436C172.963 5.1818 173.198 4.78923 173.277 4.39667C173.434 3.9256 173.512 3.45452 173.512 2.98345V2.90494L173.355 2.82642C172.492 2.51237 171.785 2.35535 171.078 2.27684C170.45 2.19832 169.665 2.11981 168.88 2.11981C166.839 2.11981 165.19 2.6694 164.012 3.69006C162.835 4.71072 162.207 6.28097 162.207 8.24378V9.0289H155.297V8.47932C155.297 7.7727 155.376 7.22312 155.455 6.83056C155.533 6.43799 155.769 6.12394 155.926 5.88841C156.161 5.65287 156.397 5.49584 156.711 5.41733C157.025 5.33882 157.417 5.26031 157.81 5.26031C158.124 5.26031 158.438 5.26031 158.674 5.33882C158.909 5.41733 159.145 5.41733 159.302 5.49585L159.537 5.57436L159.616 5.33882C159.773 4.94626 159.93 4.63221 160.087 4.23965C160.244 3.84708 160.322 3.37601 160.401 2.82642V2.59089H160.165C159.851 2.51237 159.38 2.43386 158.988 2.35535C158.517 2.27684 158.045 2.27684 157.496 2.27684C155.612 2.27684 154.198 2.82642 153.178 3.84708C152.157 4.86775 151.686 6.43799 151.686 8.4008V9.0289H149.174L149.095 9.26444C149.016 9.657 148.938 10.0496 148.938 10.5206C148.938 10.9917 149.016 11.3843 149.095 11.7768L149.174 12.0124H151.607V25.0454L151.843 25.1239C152.078 25.2025 152.314 25.2025 152.628 25.2025C153.178 25.281 153.57 25.281 154.198 25.2025C154.512 25.2025 154.748 25.1239 154.983 25.1239L155.219 25.0454V11.9339H162.128V24.9669L162.364 25.0454C162.599 25.1239 162.835 25.1239 163.149 25.1239C163.698 25.2025 164.091 25.2025 164.719 25.1239C165.033 25.1239 165.269 25.0454 165.504 25.0454L165.74 24.9669V11.9339H172.021V24.9669L172.256 25.0454C172.492 25.1239 172.727 25.1239 173.041 25.1239C173.355 25.1239 173.591 25.1239 173.826 25.1239C174.062 25.1239 174.297 25.1239 174.612 25.1239C174.926 25.1239 175.161 25.0454 175.397 25.0454L175.632 24.9669V9.0289H165.661V8.32229Z" fill="white"/>
<path d="M187.566 8.63635C186.938 8.63635 186.31 8.71487 185.76 8.87189C185.211 9.02891 184.739 9.26445 184.268 9.5785C183.876 9.89255 183.483 10.2066 183.169 10.5206C183.091 10.6777 182.934 10.7562 182.855 10.9132C182.855 10.7562 182.855 10.5992 182.777 10.4421C182.698 9.89255 182.62 9.49999 182.62 9.18594V9.02891H182.463C182.227 8.9504 181.992 8.9504 181.834 8.9504C181.442 8.87189 180.971 8.87189 180.5 8.9504C180.264 8.9504 180.029 9.02891 179.793 9.02891L179.558 9.10743V25.0454L179.793 25.124C180.029 25.2025 180.264 25.2025 180.578 25.2025C181.128 25.281 181.52 25.281 182.149 25.2025C182.463 25.2025 182.698 25.124 182.934 25.124L183.169 25.0454V16.9587C183.169 16.0165 183.248 15.2314 183.483 14.6033C183.719 13.9752 183.954 13.4256 184.347 13.033C184.661 12.6405 185.132 12.3264 185.603 12.1694C186.074 12.0124 186.545 11.8554 187.095 11.8554C187.958 11.8554 188.587 12.1694 188.979 12.719C189.372 13.3471 189.607 14.3678 189.607 15.7025V24.8884L189.843 24.9669C190.078 25.0454 190.314 25.0454 190.628 25.0454C190.942 25.0454 191.177 25.0454 191.413 25.0454C191.649 25.0454 191.884 25.0454 192.198 25.0454C192.512 25.0454 192.748 24.9669 192.983 24.9669L193.219 24.8884V14.9959C193.219 12.9545 192.748 11.3843 191.884 10.2851C190.863 9.18594 189.45 8.63635 187.566 8.63635Z" fill="white"/>
<path d="M211.827 9.18594L211.748 8.9504H211.513C210.649 8.9504 209.864 9.02891 209.157 9.26445C208.529 9.42148 207.979 9.73553 207.587 9.97106C207.116 9.5785 206.488 9.34296 205.781 9.02891C204.996 8.79338 204.132 8.63635 203.269 8.63635C202.248 8.63635 201.306 8.79338 200.521 9.10743C199.736 9.42148 199.029 9.81404 198.48 10.3636C197.93 10.9132 197.459 11.4628 197.223 12.1694C196.909 12.876 196.752 13.5826 196.752 14.4463C196.752 15.3884 196.988 16.3306 197.38 17.0372C197.773 17.6653 198.165 18.2149 198.794 18.6859C198.322 19.0785 197.93 19.4711 197.694 19.9421C197.302 20.4917 197.145 21.1983 197.145 21.9835C197.145 22.6116 197.302 23.1611 197.616 23.6322C197.851 23.9463 198.087 24.1818 198.322 24.4173C197.773 24.8099 197.302 25.281 196.909 25.8306C196.438 26.5372 196.203 27.3223 196.203 28.1859C196.203 29.6777 196.831 30.7768 198.008 31.4835C199.108 32.1116 200.756 32.5041 202.876 32.5041C204.054 32.5041 205.232 32.3471 206.252 32.1116C207.273 31.876 208.215 31.4835 209 31.0124C209.785 30.5413 210.413 29.9132 210.806 29.2066C211.277 28.5 211.513 27.7149 211.513 26.8512C211.513 25.5165 211.041 24.4173 210.178 23.6322C209.314 22.8471 207.98 22.4545 206.095 22.376L202.091 22.2975C200.992 22.2975 200.678 22.062 200.521 21.9835C200.285 21.7479 200.207 21.5124 200.207 21.1983C200.207 20.8843 200.285 20.5702 200.521 20.3347C200.756 20.0992 200.992 19.8636 201.149 19.7066C201.777 19.8636 202.562 19.9421 203.347 19.9421C204.289 19.9421 205.153 19.7851 205.938 19.5496C206.723 19.314 207.43 18.9215 207.979 18.3719C208.529 17.9008 209 17.2727 209.314 16.5661C209.628 15.8595 209.785 15.0744 209.785 14.2107C209.785 13.6611 209.707 13.1901 209.628 12.719C209.55 12.4835 209.471 12.2479 209.314 12.0124H211.748V11.7768C211.827 11.5413 211.827 11.3058 211.827 11.0702C211.827 10.8347 211.827 10.5992 211.827 10.3636C211.984 9.97106 211.905 9.5785 211.827 9.18594ZM199.5 27.7149C199.5 27.0868 199.736 26.5372 200.128 26.0661C200.521 25.6735 201.07 25.438 201.856 25.438L205.389 25.5165C206.331 25.5165 206.959 25.6735 207.351 25.9876C207.665 26.2231 207.822 26.6157 207.822 27.1653C207.822 27.8719 207.43 28.4215 206.645 28.8925C205.781 29.3636 204.603 29.6777 203.033 29.6777C202.484 29.6777 202.013 29.6777 201.62 29.5992C201.227 29.5207 200.835 29.4421 200.521 29.2851C200.207 29.1281 200.05 28.9711 199.893 28.7355C199.579 28.343 199.5 28.0289 199.5 27.7149ZM203.347 17.3512C202.327 17.3512 201.62 17.1157 201.149 16.5661C200.678 16.0165 200.442 15.3099 200.442 14.4463C200.442 13.5826 200.678 12.7975 201.149 12.2479C201.62 11.6983 202.327 11.4628 203.347 11.4628C204.368 11.4628 205.075 11.7768 205.546 12.2479C206.017 12.7975 206.252 13.5041 206.252 14.4463C206.252 15.3099 206.017 16.0165 205.546 16.5661C205.075 17.0372 204.368 17.3512 203.347 17.3512Z" fill="white"/>
</g>
<defs>
<clipPath id="clip0_4934_3417">
<rect width="211.983" height="38" fill="white"/>
</clipPath>
</defs>
</svg>
